<svg width="32" height="32" viewBox="0 0 32 32" xmlns="http://www.w3.org/2000/svg">
  <rect width="32" height="32" rx="6" fill="#0A0A0A"/>
  <g transform="translate(16, 16)">
    <circle cx="0" cy="0" r="2.5" fill="#D97706"/>
    <circle cx="0" cy="-8" r="2" fill="#FDFBF7"/>
    <circle cx="5.6" cy="-5.6" r="2" fill="#FDFBF7"/>
    <circle cx="8" cy="0" r="2" fill="#FDFBF7"/>
    <circle cx="5.6" cy="5.6" r="2" fill="#FDFBF7"/>
    <circle cx="0" cy="8" r="2" fill="#FDFBF7"/>
    <circle cx="-5.6" cy="5.6" r="2" fill="#FDFBF7"/>
    <circle cx="-8" cy="0" r="2" fill="#FDFBF7"/>
    <circle cx="-5.6" cy="-5.6" r="2" fill="#FDFBF7"/>
    <line x1="0" y1="0" x2="0" y2="-8" stroke="#D97706" stroke-width="1.5"/>
    <line x1="0" y1="0" x2="5.6" y2="-5.6" stroke="#D97706" stroke-width="1.5"/>
    <line x1="0" y1="0" x2="8" y2="0" stroke="#D97706" stroke-width="1.5"/>
    <line x1="0" y1="0" x2="5.6" y2="5.6" stroke="#D97706" stroke-width="1.5"/>
    <line x1="0" y1="0" x2="0" y2="8" stroke="#D97706" stroke-width="1.5"/>
    <line x1="0" y1="0" x2="-5.6" y2="5.6" stroke="#D97706" stroke-width="1.5"/>
    <line x1="0" y1="0" x2="-8" y2="0" stroke="#D97706" stroke-width="1.5"/>
    <line x1="0" y1="0" x2="-5.6" y2="-5.6" stroke="#D97706" stroke-width="1.5"/>
  </g>
</svg>
