<svg width="200" height="200" viewBox="0 0 200 200" xmlns="http://www.w3.org/2000/svg">
  <!-- Fully circular background -->
  <circle cx="100" cy="100" r="100" fill="#D97706"/>
  <g transform="translate(100, 100)">
    <circle cx="0" cy="0" r="15" fill="#0A0A0A"/>
    <circle cx="0" cy="-50" r="12" fill="#0A0A0A"/>
    <circle cx="35" cy="-35" r="12" fill="#0A0A0A"/>
    <circle cx="50" cy="0" r="12" fill="#0A0A0A"/>
    <circle cx="35" cy="35" r="12" fill="#0A0A0A"/>
    <circle cx="0" cy="50" r="12" fill="#0A0A0A"/>
    <circle cx="-35" cy="35" r="12" fill="#0A0A0A"/>
    <circle cx="-50" cy="0" r="12" fill="#0A0A0A"/>
    <circle cx="-35" cy="-35" r="12" fill="#0A0A0A"/>
    <line x1="0" y1="0" x2="0" y2="-50" stroke="#0A0A0A" stroke-width="8"/>
    <line x1="0" y1="0" x2="35" y2="-35" stroke="#0A0A0A" stroke-width="8"/>
    <line x1="0" y1="0" x2="50" y2="0" stroke="#0A0A0A" stroke-width="8"/>
    <line x1="0" y1="0" x2="35" y2="35" stroke="#0A0A0A" stroke-width="8"/>
    <line x1="0" y1="0" x2="0" y2="50" stroke="#0A0A0A" stroke-width="8"/>
    <line x1="0" y1="0" x2="-35" y2="35" stroke="#0A0A0A" stroke-width="8"/>
    <line x1="0" y1="0" x2="-50" y2="0" stroke="#0A0A0A" stroke-width="8"/>
    <line x1="0" y1="0" x2="-35" y2="-35" stroke="#0A0A0A" stroke-width="8"/>
  </g>
</svg>
